<svg width="536" height="92" viewBox="0 0 536 92" fill="none" xmlns="http://www.w3.org/2000/svg">
<path d="M29 52.2C26.3 51.4 21.1 50.1 16.3 46.7C9.6 42 5.9 35.2 5.5 26.8C5.1 19.7 7.30001 13.6 11.6 8.80001C17.8 2.00001 26.8 0.100006 31.1 0.100006C43.3 0.100006 50.1 4.80001 56.2 8.90001L58.9 10.8L50.2 25.8L47.2 23.8C41.8 20.1 38.4 17.8 31.1 17.8C30 17.8 25.8 18.7 23.7 21.1C23 21.9 22.1 23.2 22.3 26.1C22.4 30.6 25.4 33.2 33.1 35.2C34.1 35.5 34.8 35.7 35.5 36C43.5 38.9 49.7 42.8 54 47.7C58.3 52.7 60.6 58.7 60.6 65C60.6 71.2 58.1 77.6 53.9 82.5C49 88.3 42.2 91.6 34.7 91.6C31 91.6 26 91.3 20 89.5C12.5 87 5.8 82.6 0 76.1L12.2 64C21 74 31 74 34.7 74C41.6 74 43.9 67.3 43.9 65.1C43.9 60.3 38.8 55.9 30 52.8L29.6 52.7L29 52.2Z" fill="#131026"/>
<path d="M132.7 1.2V18.8H109.5V89.6H92.8V18.9H69.5V1.2H132.7Z" fill="#131026"/>
<path d="M190.4 73.2H155.7L147.9 89.6H129.1L171.8 1.3H176.7L216.3 89.6H197.8L190.4 73.2ZM182.5 55.6L173.8 35.9L164.4 55.6H182.5Z" fill="#131026"/>
<path d="M278.4 22.7C262.2 11.6 237.7 21.9 237.7 45.6C237.7 70.4 263.6 80.4 279.4 67.8L290.2 80.8C282.7 87.4 273 91.4 262.5 91.4C238.6 91.4 219.1 70.9 219.1 45.7C219.1 20.5 238.6 0 262.5 0C272.5 0 281.9 3.7 289.3 9.7L278.4 22.7Z" fill="#131026"/>
<path d="M325.4 49.1L318.9 56V89.4H302.2V1.2H318.9V29.7L343.4 1.2H366L336.7 35.7L366.7 89.4H346.7L325.4 49.1Z" fill="#131026"/>
<path d="M404.6 74.5C410.2 74.5 414.9 69.8 414.9 63.9C414.9 58 410.2 53.2 404.6 53.2H377.2V1.2H400C413.5 1.2 424.5 12.8 424.5 27C424.5 32.4 422.9 37.3 420.2 41.5C426.3 46.4 430.1 54.1 430.1 62.7C430.1 77.6 418.7 89.4 404.8 89.4H398.8V74.4H404.6V74.5ZM399.3 36.1C404 36.1 409 32.1 409 25.9C409 19.7 404 15.9 399.3 15.9H392V36.1H399.3Z" fill="#131026"/>
<path d="M444.7 89.5V1.2H461.4V89.4H444.7V89.5Z" fill="#131026"/>
<path d="M535.4 1.2V18.8H512.2V89.6H495.5V18.9H472.2V1.2H535.4Z" fill="#131026"/>
<path d="M392.7 89.5H377.2V74.5H392.7V89.5Z" fill="#3EB2FD"/>
</svg>
