<svg width="41" height="60" viewBox="0 0 41 60" fill="none" xmlns="http://www.w3.org/2000/svg">
<path fill-rule="evenodd" clip-rule="evenodd" d="M35.4365 26.6266C35.1233 23.4976 34.1393 20.1755 33.1045 17.2584C30.7775 11.0909 25.4504 10.2417 20.6748 8.9701C15.9622 8.1113 10.9719 7.33584 6.33038 9.04933C3.72101 9.8495 2.70186 13.7396 3.11367 16.8094C3.34869 18.7223 4.0443 20.5328 4.63747 22.3056C5.81645 25.9464 6.56447 29.8442 6.56574 33.786C6.48481 36.362 6.19435 39.3022 8.55924 40.3933C10.8096 41.7941 10.9997 45.5915 13.8176 47.746C14.957 50.635 18.0607 50.8892 20.2945 51.5594C21.7064 51.8976 23.1343 52.1466 24.566 52.3074C28.7116 52.9723 32.0281 51.4686 34.1982 46.8459C35.6505 44.0325 36.7319 40.7841 36.4647 37.3744C36.1986 33.7839 35.7554 30.2122 35.4365 26.6266Z" fill="#D08B5B"/>
<path fill-rule="evenodd" clip-rule="evenodd" d="M20.7106 1.47454C20.9472 1.13883 21.3118 1.25397 21.533 1.51943C21.6771 1.57257 21.8166 1.65158 21.9485 1.75616C22.2464 1.70831 22.5587 1.70831 22.8508 1.72172C22.9217 1.67197 22.9977 1.62771 23.0804 1.58968C23.6711 1.31936 24.1942 1.45669 24.6257 1.81859C24.8335 1.57246 25.0957 1.41802 25.4309 1.44137C25.7301 1.46228 25.9432 1.63848 26.1259 1.87056C26.3081 1.54172 26.6026 1.30711 26.9696 1.27447C27.4824 1.22883 27.9754 1.48626 28.384 1.88482C28.622 1.54299 28.9466 1.34651 29.3083 1.34461C29.5463 1.29052 29.7974 1.31186 30.0243 1.39764C30.3538 1.52218 30.6431 1.75552 30.8734 2.05838C31.2379 1.62147 31.6841 1.30711 32.1985 1.35295C32.8643 1.41316 33.4162 2.02595 33.6728 2.78017C34.1234 3.00612 34.5394 3.32841 34.8871 3.78792C34.9057 3.81211 34.9234 3.83746 34.942 3.86292C35.1293 3.94943 35.3057 4.07207 35.461 4.23359C35.9529 4.74602 36.0626 5.48757 35.8998 6.21423C35.9226 6.33053 35.942 6.44884 35.9597 6.56704C36.4204 6.65472 36.839 6.98757 37.077 7.52947C37.4027 8.27314 37.3386 9.25331 36.9858 9.96328C36.8342 10.2687 36.6417 10.526 36.4255 10.751C36.67 11.4461 36.5527 12.2755 36.1585 12.8377C36.0625 13.0315 35.9446 13.2064 35.8119 13.3648C35.9583 14.0834 35.6979 14.8249 35.1781 15.2088L35.1336 15.3481C35.1261 15.3713 35.1186 15.3943 35.1107 15.4172C35.105 15.4467 35.0979 15.4754 35.0909 15.5042C35.0785 15.7592 35.0114 16.0094 34.8783 16.2452C34.6056 16.7284 34.2677 17.0435 34.0885 17.6076L34.0706 17.6668C33.9935 17.9338 33.7447 18.1221 33.5328 18.0397C34.7097 21.0652 35.3268 24.4316 35.7504 27.7308C35.9616 29.3767 36.1247 31.0283 36.2569 32.6862L36.3865 34.3372C36.5006 35.8047 36.6021 37.2771 36.6027 38.7495C36.6044 42.0802 35.8432 45.284 34.2095 47.9344C32.6643 50.44 30.4778 52.2558 28.0078 52.971C25.4576 53.7083 22.466 53.4178 20.1791 51.7298C19.5048 51.2334 20.0956 50.0396 20.7816 50.439C22.0804 51.1954 23.4002 51.7573 24.8399 51.883C26.2432 52.0065 27.65 51.7868 28.9808 51.2122C31.1825 50.2605 33.0559 48.2672 34.2601 45.7848C34.8534 44.5614 35.2829 43.2337 35.5116 41.8308C35.7963 40.0823 35.7534 38.275 35.6488 36.5041L35.6415 36.3834C35.4348 32.9713 35.1622 29.5382 34.7217 26.1601C34.3323 23.1729 33.7336 20.2462 32.9563 17.3843C32.6518 17.0488 32.3112 16.7712 31.9468 16.5603C29.2778 16.4208 26.6041 16.4616 23.9386 16.6921C21.6653 16.8899 19.4031 17.2247 17.158 17.7125L16.9175 17.7654C16.4204 17.8762 15.8685 17.9396 15.4002 18.19C14.9985 18.4055 14.8356 18.8196 14.7344 19.3287C14.4795 20.6164 14.4407 22.0256 14.3977 23.346C14.3555 24.6368 14.4508 25.9383 14.3681 27.2248C14.2981 28.3012 14.0778 29.403 13.4407 30.1816C13.1074 30.5892 12.6972 30.8121 12.3124 31.1216C12.0635 31.3214 11.958 31.5273 11.9901 31.897C12.0593 32.7062 12.5799 33.7255 11.9951 34.4185C11.8922 34.54 11.7141 34.5558 11.6128 34.4185C11.3715 34.0901 11.0382 33.8396 10.7521 33.5745C10.6323 33.4647 10.7318 33.2513 10.8677 33.3273C11.0466 33.4277 11.2289 33.546 11.4154 33.6496C11.0036 33.2249 10.4179 33.0167 9.93015 32.8931C9.68458 32.8319 9.42635 32.8139 9.17066 32.8425C8.98163 32.9554 8.78838 33.0601 8.59513 33.1625C8.34956 33.2915 8.10146 33.4086 7.85167 33.5196C6.985 34.4037 6.5715 35.8415 6.75209 37.2475C6.85082 38.0238 7.1369 38.8679 7.67614 39.3211C8.31496 39.8577 9.17066 39.6273 9.86095 40.0256C10.5074 40.3984 10.9006 41.1517 11.1951 41.9313L11.3179 42.2558C11.5913 42.9744 11.8723 43.674 12.2458 44.328C12.6778 45.0854 13.2069 45.7657 13.7842 46.3499C14.0642 46.6327 14.3627 46.887 14.6711 47.1187L14.7555 47.1813C15.0677 47.4105 15.2913 47.6291 15.3124 48.1139C15.3192 48.2829 15.2339 48.4372 15.1242 48.5248C14.6517 48.8998 14.1816 48.4308 13.7884 48.1033C13.3639 47.7505 12.958 47.3535 12.5825 46.9204C11.8685 46.0985 11.2508 45.1225 10.7757 44.0628C10.4137 43.2559 10.2078 42.1203 9.63563 41.495C9.28627 41.1136 8.7926 41.1105 8.35631 41.0407C7.9504 40.9753 7.56644 40.8696 7.20525 40.6193C5.73606 39.5978 5.32087 37.1249 5.66939 35.214C5.72846 34.8917 5.81116 34.578 5.91327 34.2759C5.36644 34.39 4.75209 33.6823 4.97403 32.9681C4.99091 32.9142 5.01032 32.8637 5.02888 32.8118C4.66855 32.515 4.38416 32.0651 4.24914 31.4766C4.17994 31.1723 4.16981 30.865 4.2061 30.5681C4.03142 30.4214 3.88711 30.2195 3.79428 29.9713C3.50399 29.8033 3.2466 29.552 3.09302 29.1929C2.88036 28.6973 2.90736 28.241 3.06939 27.8301C3.0466 27.7784 3.02466 27.7256 3.00357 27.6716C2.40863 27.1996 1.99344 26.3861 2.0407 25.484C2.05589 25.185 2.11496 24.9157 2.2061 24.6728C2.1985 24.6422 2.19091 24.6104 2.18416 24.5797C1.68627 24.2628 1.27445 23.7422 1.12762 23.0471C0.980782 22.3477 1.15378 21.6505 1.49977 21.1139C0.99344 20.6503 0.688799 20.0027 0.873609 19.0234C0.948715 18.6253 1.09977 18.2628 1.30399 17.9575C1.30314 17.9481 1.30146 17.9386 1.29977 17.929L1.2524 17.883C0.627331 17.2656 0.268011 16.4788 0.651668 15.5111C0.82382 15.076 1.06939 14.7727 1.358 14.573L1.37234 14.516V14.516C1.16559 13.9614 1.09555 13.3456 1.23817 12.698C1.35462 12.1647 1.63057 11.7399 1.98331 11.458C1.95969 11.2192 1.96306 10.9647 2.00104 10.6889C2.06433 10.2231 2.24914 9.81645 2.51918 9.52807C2.52931 9.46669 2.54196 9.40659 2.55631 9.34627C2.64745 8.97771 2.81791 8.57736 3.01538 8.28042C3.17825 8.0343 3.36053 7.94451 3.58331 7.935C3.56981 7.70799 3.57909 7.47761 3.61623 7.24416C3.73015 6.52384 4.09639 5.84662 4.63901 5.53922C4.8618 5.41352 5.09639 5.37665 5.32255 5.40718C5.51496 4.90014 5.89049 4.53264 6.35209 4.45341C6.53184 4.42172 6.69893 4.42373 6.85251 4.45236C6.93943 4.40155 7.02973 4.35623 7.12424 4.31493C7.18669 4.28746 7.24998 4.26211 7.31327 4.23686C7.52677 3.90517 7.80779 3.63993 8.13606 3.48053C8.51496 3.29567 8.90061 3.31457 9.24239 3.46986L9.35125 3.44133V3.44133C9.52171 3.07162 9.79344 2.78535 10.2112 2.65542C10.6854 2.50859 11.1723 2.71352 11.5453 3.08651C11.547 3.08651 11.5487 3.08651 11.5512 3.08535C11.7462 2.53922 12.0795 2.15894 12.639 2.18535C12.9875 2.20225 13.3023 2.4189 13.5453 2.72736C13.6804 2.70612 13.8154 2.68711 13.9512 2.6682C14.0947 2.45788 14.2542 2.26151 14.4306 2.0851C14.7192 1.79556 15.0947 1.8189 15.3074 2.22655C15.3538 2.31528 15.3968 2.40507 15.4399 2.49486L15.6348 2.47795V2.47795C15.8643 2.09028 16.1774 1.82831 16.6061 1.80728C16.9993 1.78711 17.2795 2.02806 17.493 2.36493C17.6669 2.35964 17.8415 2.35552 18.0162 2.35225C18.2196 2.05753 18.4593 1.79767 18.7327 1.58218C18.942 1.41739 19.2508 1.47348 19.4204 1.6932C19.535 1.84257 19.6417 1.99848 19.7409 2.15989C19.9965 1.80116 20.3417 1.56485 20.7106 1.47454ZM8.29049 35.0186C8.68459 34.7376 9.21454 35.0418 9.59598 35.2806C10.061 35.571 10.5226 36.0094 10.8069 36.5587C11.1943 37.3066 10.2837 37.9108 9.87615 37.2401C9.62551 36.827 9.42551 36.4108 9.12172 36.0496C8.84408 35.7179 8.44155 35.496 8.28205 35.0587C8.27615 35.0439 8.27783 35.027 8.29049 35.0186ZM8.56757 16.8653L8.57495 16.8389C8.68701 16.4552 8.1979 16.2897 8.08676 16.6703C7.91832 17.2472 8.1125 17.8744 8.56769 18.1234C8.69385 18.1925 8.83798 18.1685 8.91402 18.0098C8.9779 17.8761 8.94828 17.6446 8.82322 17.5763C8.5671 17.4361 8.48131 17.1886 8.56757 16.8653V16.8653ZM4.35343 15.7921C4.59824 15.5217 4.239 15.0748 3.99537 15.344C3.76803 15.5952 3.59942 15.9364 3.64321 16.3288C3.68786 16.7288 3.92878 17.0111 4.1925 17.2107C4.47199 17.4223 4.72676 16.8744 4.44803 16.6634L4.41671 16.6394C4.29971 16.5485 4.16277 16.4234 4.14296 16.2444C4.12195 16.0543 4.25047 15.9059 4.35343 15.7921ZM5.74363 11.0205L5.76097 11.0045C6.02393 10.7696 5.77135 10.2197 5.50536 10.4572C5.26148 10.6752 5.06587 10.9583 5.04528 11.3487C5.02528 11.7281 5.17954 12.0571 5.38123 12.324C5.60561 12.6209 5.96325 12.1722 5.73929 11.8759C5.52106 11.5871 5.4784 11.272 5.74363 11.0205V11.0205Z" fill="black"/>
<path fill-rule="evenodd" clip-rule="evenodd" d="M28.5641 43.0302C28.6938 42.7485 28.9925 42.4875 29.2658 42.5275C30.4903 42.7069 30.4881 44.5612 30.0153 45.6437C29.5961 46.6036 28.7286 47.167 27.8602 47.0848C26.948 46.9982 26.1708 46.3283 25.8287 45.2624C25.6025 44.5573 25.498 43.2555 26.0997 42.7818C26.1109 42.7729 26.1293 42.7751 26.1382 42.7879C26.4267 43.2071 26.4381 43.8366 26.6907 44.3034C26.9256 44.7376 27.2906 45.0961 27.7182 45.1514C28.0375 45.1929 28.3605 45.049 28.4854 44.6909C28.553 44.4972 28.5453 44.392 28.5199 44.2587L28.4968 44.1429C28.4169 43.7371 28.3809 43.4281 28.5641 43.0302ZM28.8914 34.898C29.53 35.3829 30.503 36.5135 29.816 37.7155C29.0074 38.7754 27.8431 37.5602 27.2694 37.0106C26.7374 36.5846 26.1397 37.6801 26.6332 38.1775C30.779 42.0115 32.4615 35.0248 29.2144 34.3279C28.8568 34.2511 28.7241 34.748 28.8914 34.898ZM22.1477 31.5732C22.5397 30.8386 23.4344 30.9468 23.6503 31.8185C23.7673 32.2907 23.6057 32.7151 23.6141 33.1866C23.6211 33.585 23.6002 34.0289 23.5025 34.4146C23.2796 35.2944 22.6462 35.9157 21.8968 35.8899C21.1499 35.8642 20.4921 35.2738 20.1793 34.4421C19.8654 33.6073 19.9318 32.7433 20.161 31.8944C20.172 31.8536 20.2148 31.8339 20.2406 31.8682C20.5115 32.2278 20.7098 32.6074 20.915 33.0101L21.1253 33.4229C21.286 33.7336 21.5195 34.1306 21.8196 34.1057L21.8646 34.1002C21.948 34.0912 21.9352 34.1119 21.9996 33.9699C22.0293 33.9042 22.0239 33.7821 22.0383 33.7046L22.0433 33.6784V33.6784L22.0406 33.6643C22.0342 33.6267 22.0279 33.5559 22.0228 33.4332L22.0217 33.406C22 32.8317 21.87 32.0936 22.1477 31.5732ZM32.0836 32.0622C32.0134 31.1227 33.0708 30.9141 33.4223 31.6093C33.6057 31.9718 33.659 32.4272 33.6996 32.8586L33.7186 33.0634C33.7602 33.5066 33.7767 33.9675 33.6227 34.3809C33.3801 35.0319 32.8527 35.3761 32.2837 35.3216C31.7404 35.2694 31.2446 34.8759 30.9833 34.2785C30.7504 33.7455 30.5187 32.7048 30.8017 32.1489C30.8188 32.1152 30.8529 32.1108 30.8764 32.1368C31.1438 32.4333 31.1873 32.9742 31.3463 33.3605C31.5103 33.7589 31.759 34.1472 32.1359 34.2078C32.4965 34.2656 32.6342 34.0196 32.5422 33.5902C32.4236 33.0359 32.1283 32.6587 32.0836 32.0622ZM22.4335 25.9876L22.6064 25.9049C23.1989 25.6253 24.0123 25.3022 24.494 25.904C24.7912 26.2751 24.8478 26.8217 24.6357 27.2746C24.3787 27.8231 23.9177 27.8366 23.4725 27.9175C22.9662 28.0094 22.4513 28.1841 21.9799 28.4332C21.4489 28.7138 20.9562 29.0637 20.4734 29.4544C20.0145 29.8257 19.5573 30.4326 19.008 30.547C18.9856 30.5516 18.9601 30.5396 18.9543 30.5089C18.8296 29.8381 19.1762 29.178 19.4856 28.6547C19.8598 28.0211 20.3134 27.501 20.8203 27.0348C21.3095 26.5847 21.8685 26.2594 22.4335 25.9876ZM33.1961 28.3725L33.2489 28.3609C33.6082 28.2862 33.9338 28.3034 34.2045 28.6589C34.4112 28.93 34.4909 29.2815 34.3923 29.64C34.3014 29.9707 34.0981 30.3068 33.8031 30.3761C32.807 30.6101 31.7036 30.5715 30.7025 30.3942C30.2445 30.3131 29.7824 30.2138 29.3362 30.0573L29.131 29.9829C28.7585 29.85 28.3321 29.7112 28.0616 29.3691C27.9643 29.2461 28.0204 29.0701 28.1368 29.0132C28.6088 28.7823 29.2558 28.9051 29.7592 28.887C30.3447 28.8661 30.9312 28.8113 31.5139 28.7358C32.0834 28.6618 32.6345 28.5012 33.1961 28.3725Z" fill="black"/>
<path fill-rule="evenodd" clip-rule="evenodd" d="M21.3573 45.7598C22.042 43.7562 23.5363 42.2837 25.2568 41.7454C26.5203 41.351 27.8462 41.3636 29.1341 41.5201C29.8089 41.6015 30.5327 41.6683 31.1686 41.9813C31.7117 42.2487 32.1542 42.7542 32.487 43.3475C32.8831 44.0506 33.1525 44.8554 33.3416 45.6802C33.3685 45.7975 33.3938 45.9156 33.4173 46.0343C33.3351 46.6567 33.1604 47.1864 32.699 47.5776C32.2486 47.9597 31.7113 48.116 31.1757 48.1715C31.1232 48.14 31.0724 48.1076 31.0259 48.0744C30.1912 47.4776 29.6038 46.0671 28.5503 46.258C27.6101 46.4285 26.9913 47.9061 26.4322 48.7726C24.6375 49.0337 22.8442 48.3601 21.384 47.0783C21.3098 46.6395 21.3055 46.1971 21.3573 45.7598M34.637 44.2399C34.4934 43.7367 34.3126 43.2493 34.0983 42.7901C33.3897 41.2717 32.3019 40.0619 31.0106 39.3703C27.9559 37.7365 24.0034 38.8882 21.5365 41.5677C20.6938 42.4837 19.8418 43.8297 19.5841 45.2776C19.5072 45.2966 19.4345 45.3467 19.3748 45.4171C17.5924 44.0154 15.757 42.6668 14.3208 40.7238C13.2777 39.3121 12.5523 37.6414 12.108 35.8055C12.0717 35.6544 11.8766 35.6765 11.8826 35.8437C11.8842 35.8829 11.8859 35.9219 11.8876 35.961C11.869 35.8891 11.7812 35.9261 11.7745 35.9959C11.5354 38.2261 11.2365 40.5906 11.5118 42.8324C11.6765 44.1701 12.1629 45.1494 12.8132 46.2069C13.51 47.3404 14.2988 48.3947 15.1053 49.4058C15.6171 50.0475 16.1517 50.7878 16.7784 51.2583C17.5072 51.805 18.334 52.2207 19.1118 52.6426C19.9032 53.073 20.7063 53.4706 21.5247 53.8153C23.1606 54.5069 24.8514 54.9849 26.5717 55.1942C27.9492 55.3613 29.5234 55.5433 30.8434 54.896C31.8552 54.4001 32.6718 53.5034 33.3196 52.4247C34.0248 51.2499 34.5823 49.9117 34.8905 48.5005C35.2107 47.0346 34.7045 44.4763 34.637 44.2399" fill="black"/>
</svg>
